<svg width="36" height="36" viewBox="0 0 36 36" fill="none" xmlns="http://www.w3.org/2000/svg">
<rect width="36" height="36" rx="6" fill="#38A9E2"/>
<path d="M25.328 14.576C25.328 15.552 25.104 16.448 24.656 17.264C24.208 18.064 23.52 18.712 22.592 19.208C21.664 19.704 20.512 19.952 19.136 19.952H16.592V26H12.488V9.152H19.136C20.48 9.152 21.616 9.384 22.544 9.848C23.472 10.312 24.168 10.952 24.632 11.768C25.096 12.584 25.328 13.52 25.328 14.576ZM18.824 16.688C19.608 16.688 20.192 16.504 20.576 16.136C20.96 15.768 21.152 15.248 21.152 14.576C21.152 13.904 20.96 13.384 20.576 13.016C20.192 12.648 19.608 12.464 18.824 12.464H16.592V16.688H18.824Z" fill="white"/>
</svg>
