<svg width="174" height="48" viewBox="0 0 174 48" fill="none" xmlns="http://www.w3.org/2000/svg">
<path d="M10.7368 35.9527V34.994C10.7368 33.9469 10.1811 32.9882 9.29684 32.4836C3.95368 29.4686 0.631577 23.7792 0.631577 17.661C0.631577 8.27543 8.28631 0.630753 17.6842 0.630753C17.9495 0.630753 18.2274 0.630753 18.4926 0.655983C26.9432 1.04705 33.8905 7.66991 34.661 16.0715C35.2674 22.7448 31.8947 29.2037 26.0716 32.4962C25.1874 33.0008 24.6316 33.9595 24.6316 35.0066V35.9653H10.7368V35.9527Z" fill="url(#paint0_linear_718_299)"/>
<path d="M17.6842 1.2615C17.9495 1.2615 18.2021 1.2615 18.4674 1.27411C26.6021 1.65256 33.2968 8.03574 34.0295 16.1219C34.6105 22.5556 31.3642 28.7622 25.7558 31.9411C24.6695 32.5593 24 33.7325 24 34.994V35.3219H11.3684V34.994C11.3684 33.7198 10.6989 32.5466 9.61263 31.9285C4.47158 29.0145 1.26316 23.5396 1.26316 17.6484C1.26316 8.61603 8.62737 1.2615 17.6842 1.2615ZM17.6842 0C7.92 0 0 7.90959 0 17.661C0 24.246 3.62526 29.9984 8.98105 33.0386C9.68842 33.4423 10.1053 34.1992 10.1053 35.0066V36.5961H25.2632V35.0066C25.2632 34.1992 25.68 33.4423 26.3747 33.0512C32.1853 29.7587 35.9495 23.2999 35.2926 16.021C34.5095 7.34192 27.2211 0.428909 18.5305 0.02523C18.24 0 17.9621 0 17.6842 0Z" fill="#B9D4E2"/>
<path d="M26.2105 17.888C25.6421 18.9098 24.7705 19.7298 23.6084 20.3606C22.4337 20.9913 20.9811 21.2941 19.2379 21.2941H16.0295V28.9261H10.8505V7.66989H19.2505C20.9432 7.66989 22.3832 7.96004 23.5579 8.55294C24.7326 9.14584 25.6042 9.94059 26.1979 10.975C26.7789 12.0094 27.0821 13.1826 27.0821 14.5198C27.0821 15.7561 26.8042 16.8788 26.2358 17.9006L26.2105 17.888ZM21.0568 16.4751C21.5368 16.0084 21.7895 15.3524 21.7895 14.5072C21.7895 13.662 21.5495 13.006 21.0568 12.5393C20.5768 12.0725 19.8316 11.8455 18.8463 11.8455H16.0295V17.169H18.8463C19.8316 17.169 20.5768 16.9419 21.0568 16.4751Z" fill="#F2F2F2"/>
<path d="M23.6211 36.0032H11.7474C11.1893 36.0032 10.7369 36.455 10.7369 37.0124V38.7785C10.7369 39.3358 11.1893 39.7877 11.7474 39.7877H23.6211C24.1792 39.7877 24.6316 39.3358 24.6316 38.7785V37.0124C24.6316 36.455 24.1792 36.0032 23.6211 36.0032Z" fill="url(#paint1_linear_718_299)"/>
<path d="M23.6211 36.6339C23.8232 36.6339 24 36.7979 24 37.0124V38.7911C24 38.993 23.8358 39.1696 23.6211 39.1696H11.7347C11.5326 39.1696 11.3558 39.0056 11.3558 38.7911V37.0124C11.3558 36.8106 11.52 36.6339 11.7347 36.6339H23.6211ZM23.6211 35.3725H11.7347C10.8253 35.3725 10.0926 36.1041 10.0926 37.0124V38.7911C10.0926 39.6994 10.8253 40.4311 11.7347 40.4311H23.6211C24.5305 40.4311 25.2632 39.6994 25.2632 38.7911V37.0124C25.2632 36.1041 24.5305 35.3725 23.6211 35.3725Z" fill="#B9D4E2"/>
<path d="M22.3579 39.7877H13.0105C12.4524 39.7877 12 40.2395 12 40.7969V42.563C12 43.1203 12.4524 43.5722 13.0105 43.5722H22.3579C22.916 43.5722 23.3684 43.1203 23.3684 42.563V40.7969C23.3684 40.2395 22.916 39.7877 22.3579 39.7877Z" fill="url(#paint2_linear_718_299)"/>
<path d="M22.3579 40.4184C22.56 40.4184 22.7369 40.5824 22.7369 40.7968V42.5755C22.7369 42.7774 22.5726 42.954 22.3579 42.954H12.9979C12.7958 42.954 12.619 42.79 12.619 42.5755V40.7968C12.619 40.595 12.7832 40.4184 12.9979 40.4184H22.3579ZM22.3579 39.1569H12.9979C12.0884 39.1569 11.3558 39.8886 11.3558 40.7968V42.5755C11.3558 43.4838 12.0884 44.2155 12.9979 44.2155H22.3579C23.2674 44.2155 24 43.4838 24 42.5755V40.7968C24 39.8886 23.2674 39.1569 22.3579 39.1569Z" fill="#B9D4E2"/>
<path d="M19.8316 43.5722H15.5368C14.9787 43.5722 14.5263 44.024 14.5263 44.5814V46.3475C14.5263 46.9048 14.9787 47.3567 15.5368 47.3567H19.8316C20.3897 47.3567 20.8421 46.9048 20.8421 46.3475V44.5814C20.8421 44.024 20.3897 43.5722 19.8316 43.5722Z" fill="#42B97C"/>
<path d="M19.8316 44.2029C20.0337 44.2029 20.2105 44.3669 20.2105 44.5813V46.36C20.2105 46.5619 20.0463 46.7385 19.8316 46.7385H15.5242C15.3221 46.7385 15.1453 46.5745 15.1453 46.36V44.5813C15.1453 44.3795 15.3095 44.2029 15.5242 44.2029H19.8316ZM19.8316 42.9414H15.5242C14.6147 42.9414 13.8821 43.6731 13.8821 44.5813V46.36C13.8821 47.2683 14.6147 48 15.5242 48H19.8316C20.741 48 21.4737 47.2683 21.4737 46.36V44.5813C21.4737 43.6731 20.741 42.9414 19.8316 42.9414Z" fill="#B9D4E2"/>
<path d="M57.2388 20.432C57.2388 21.328 57.0228 22.168 56.5908 22.952C56.1748 23.736 55.5108 24.368 54.5988 24.848C53.7028 25.328 52.5668 25.568 51.1908 25.568H48.3828V32H45.0228V15.248H51.1908C52.4868 15.248 53.5908 15.472 54.5028 15.92C55.4148 16.368 56.0948 16.984 56.5428 17.768C57.0068 18.552 57.2388 19.44 57.2388 20.432ZM51.0468 22.856C51.9748 22.856 52.6628 22.648 53.1108 22.232C53.5588 21.8 53.7828 21.2 53.7828 20.432C53.7828 18.8 52.8708 17.984 51.0468 17.984H48.3828V22.856H51.0468ZM58.7604 25.304C58.7604 23.96 59.0244 22.768 59.5524 21.728C60.0964 20.688 60.8244 19.888 61.7364 19.328C62.6644 18.768 63.6964 18.488 64.8324 18.488C65.8244 18.488 66.6884 18.688 67.4244 19.088C68.1764 19.488 68.7764 19.992 69.2244 20.6V18.704H72.6084V32H69.2244V30.056C68.7924 30.68 68.1924 31.2 67.4244 31.616C66.6724 32.016 65.8004 32.216 64.8084 32.216C63.6884 32.216 62.6644 31.928 61.7364 31.352C60.8244 30.776 60.0964 29.968 59.5524 28.928C59.0244 27.872 58.7604 26.664 58.7604 25.304ZM69.2244 25.352C69.2244 24.536 69.0644 23.84 68.7444 23.264C68.4244 22.672 67.9924 22.224 67.4484 21.92C66.9044 21.6 66.3204 21.44 65.6964 21.44C65.0724 21.44 64.4964 21.592 63.9684 21.896C63.4404 22.2 63.0084 22.648 62.6724 23.24C62.3524 23.816 62.1924 24.504 62.1924 25.304C62.1924 26.104 62.3524 26.808 62.6724 27.416C63.0084 28.008 63.4404 28.464 63.9684 28.784C64.5124 29.104 65.0884 29.264 65.6964 29.264C66.3204 29.264 66.9044 29.112 67.4484 28.808C67.9924 28.488 68.4244 28.04 68.7444 27.464C69.0644 26.872 69.2244 26.168 69.2244 25.352ZM79.25 20.768C79.682 20.064 80.242 19.512 80.93 19.112C81.634 18.712 82.434 18.512 83.33 18.512V22.04H82.442C81.386 22.04 80.586 22.288 80.042 22.784C79.514 23.28 79.25 24.144 79.25 25.376V32H75.89V18.704H79.25V20.768ZM93.4651 32L88.9531 26.336V32H85.5931V14.24H88.9531V24.344L93.4171 18.704H97.7851L91.9291 25.376L97.8331 32H93.4651Z" fill="#38A9E2"/>
<path d="M105.393 32.168C104.225 32.168 103.169 31.968 102.225 31.568C101.297 31.168 100.561 30.592 100.017 29.84C99.4728 29.088 99.1928 28.2 99.1768 27.176H102.777C102.825 27.864 103.065 28.408 103.497 28.808C103.945 29.208 104.553 29.408 105.321 29.408C106.105 29.408 106.721 29.224 107.169 28.856C107.617 28.472 107.841 27.976 107.841 27.368C107.841 26.872 107.689 26.464 107.385 26.144C107.081 25.824 106.697 25.576 106.233 25.4C105.785 25.208 105.161 25 104.361 24.776C103.273 24.456 102.385 24.144 101.697 23.84C101.025 23.52 100.441 23.048 99.9448 22.424C99.4648 21.784 99.2248 20.936 99.2248 19.88C99.2248 18.888 99.4728 18.024 99.9688 17.288C100.465 16.552 101.161 15.992 102.057 15.608C102.953 15.208 103.977 15.008 105.129 15.008C106.857 15.008 108.257 15.432 109.329 16.28C110.417 17.112 111.017 18.28 111.129 19.784H107.433C107.401 19.208 107.153 18.736 106.689 18.368C106.241 17.984 105.641 17.792 104.889 17.792C104.233 17.792 103.705 17.96 103.305 18.296C102.921 18.632 102.729 19.12 102.729 19.76C102.729 20.208 102.873 20.584 103.161 20.888C103.465 21.176 103.833 21.416 104.265 21.608C104.713 21.784 105.337 21.992 106.137 22.232C107.225 22.552 108.113 22.872 108.801 23.192C109.489 23.512 110.081 23.992 110.577 24.632C111.073 25.272 111.321 26.112 111.321 27.152C111.321 28.048 111.089 28.88 110.625 29.648C110.161 30.416 109.481 31.032 108.585 31.496C107.689 31.944 106.625 32.168 105.393 32.168ZM130.746 18.512C132.378 18.512 133.69 19.016 134.682 20.024C135.69 21.016 136.194 22.408 136.194 24.2V32H132.834V24.656C132.834 23.616 132.57 22.824 132.042 22.28C131.514 21.72 130.794 21.44 129.882 21.44C128.97 21.44 128.242 21.72 127.698 22.28C127.17 22.824 126.906 23.616 126.906 24.656V32H123.546V24.656C123.546 23.616 123.282 22.824 122.754 22.28C122.226 21.72 121.506 21.44 120.594 21.44C119.666 21.44 118.93 21.72 118.386 22.28C117.858 22.824 117.594 23.616 117.594 24.656V32H114.234V18.704H117.594V20.312C118.026 19.752 118.578 19.312 119.25 18.992C119.938 18.672 120.69 18.512 121.506 18.512C122.546 18.512 123.474 18.736 124.29 19.184C125.106 19.616 125.738 20.24 126.186 21.056C126.618 20.288 127.242 19.672 128.058 19.208C128.89 18.744 129.786 18.512 130.746 18.512ZM138.518 25.304C138.518 23.96 138.782 22.768 139.31 21.728C139.854 20.688 140.582 19.888 141.494 19.328C142.422 18.768 143.454 18.488 144.59 18.488C145.582 18.488 146.446 18.688 147.182 19.088C147.934 19.488 148.534 19.992 148.982 20.6V18.704H152.366V32H148.982V30.056C148.55 30.68 147.95 31.2 147.182 31.616C146.43 32.016 145.558 32.216 144.566 32.216C143.446 32.216 142.422 31.928 141.494 31.352C140.582 30.776 139.854 29.968 139.31 28.928C138.782 27.872 138.518 26.664 138.518 25.304ZM148.982 25.352C148.982 24.536 148.822 23.84 148.502 23.264C148.182 22.672 147.75 22.224 147.206 21.92C146.662 21.6 146.078 21.44 145.454 21.44C144.83 21.44 144.254 21.592 143.726 21.896C143.198 22.2 142.766 22.648 142.43 23.24C142.11 23.816 141.95 24.504 141.95 25.304C141.95 26.104 142.11 26.808 142.43 27.416C142.766 28.008 143.198 28.464 143.726 28.784C144.27 29.104 144.846 29.264 145.454 29.264C146.078 29.264 146.662 29.112 147.206 28.808C147.75 28.488 148.182 28.04 148.502 27.464C148.822 26.872 148.982 26.168 148.982 25.352ZM159.008 20.768C159.44 20.064 160 19.512 160.688 19.112C161.392 18.712 162.192 18.512 163.088 18.512V22.04H162.2C161.144 22.04 160.344 22.288 159.8 22.784C159.272 23.28 159.008 24.144 159.008 25.376V32H155.648V18.704H159.008V20.768ZM169.263 21.464V27.896C169.263 28.344 169.367 28.672 169.575 28.88C169.799 29.072 170.167 29.168 170.679 29.168H172.239V32H170.127C167.295 32 165.879 30.624 165.879 27.872V21.464H164.295V18.704H165.879V15.416H169.263V18.704H172.239V21.464H169.263Z" fill="#42B97C"/>
<defs>
<linearGradient id="paint0_linear_718_299" x1="17.6842" y1="35.9527" x2="17.6842" y2="0.630753" gradientUnits="userSpaceOnUse">
<stop stop-color="#38D4E2"/>
<stop offset="0.493154" stop-color="#38A9E2"/>
</linearGradient>
<linearGradient id="paint1_linear_718_299" x1="17.6842" y1="39.7877" x2="17.6842" y2="36.0032" gradientUnits="userSpaceOnUse">
<stop stop-color="#38E2A1"/>
<stop offset="1" stop-color="#38D4E2"/>
</linearGradient>
<linearGradient id="paint2_linear_718_299" x1="17.6842" y1="43.5722" x2="17.6842" y2="39.7877" gradientUnits="userSpaceOnUse">
<stop stop-color="#42B97C"/>
<stop offset="1" stop-color="#38E2A1"/>
</linearGradient>
</defs>
</svg>
